<svg xmlns="http://www.w3.org/2000/svg" xmlns:xlink="http://www.w3.org/1999/xlink" version="1.1" x="0px" y="0px" viewBox="0 0 100 100" enable-background="new 0 0 100 100" xml:space="preserve"><g><path fill-rule="evenodd" clip-rule="evenodd" d="M74.574,46.62c-0.348-0.348-0.7-0.674-1.054-0.992   c0.11-0.084,0.216-0.17,0.299-0.252c2.396-2.396-0.398-7.439-4.096-11.256c0.035-0.229,0.069-0.46,0.104-0.689   c0.891-6.047,1.734-11.759,9.023-13.713l-0.775-2.898c-8.579,2.3-10.088,8.795-11.021,14.874c-2.528-2.005-5.024-3.188-6.878-3.188   c-1.202,0-1.937,0.482-2.341,0.887c-0.475,0.475-0.742,1.055-0.843,1.707c-2.475-1.91-4.938-3.031-6.813-3.031   c-1.281,0-2.063,0.512-2.493,0.941c-0.067,0.066-0.115,0.144-0.174,0.214L33.79,42.943c0.787,2.608,2.664,6.168,5.719,10.204   l11.553-11.553c-1.013,1.125-1.033,2.786-0.391,4.634l-9.277,9.275c1.316,1.576,2.783,3.199,4.439,4.855   c2.494,2.494,5.072,4.723,7.596,6.602c2.995-2.988,5.99-5.975,8.982-8.965c0.818,0.285,1.591,0.449,2.279,0.449   c1.068,0,1.775-0.355,2.236-0.723l-0.628,0.629c-3.456,3.457-6.917,6.908-10.378,10.359c1.31,0.863,2.594,1.627,3.826,2.25   c2.01,1.018,3.593,1.533,4.813,1.738c4.479-4.467,8.957-8.932,13.428-13.404l0.526-0.525c0.147-0.105,0.273-0.215,0.378-0.318   c0.689-0.688,1.627-2.336,0.162-5.629C78.165,50.822,76.575,48.62,74.574,46.62z M76.771,56.328   c-0.016,0.014-0.124,0.063-0.371,0.063c-1.41,0-4.342-1.504-7.217-4.379c-2.721-2.722-3.896-5.051-4.263-6.398   c0.418-0.35,0.794-0.725,1.137-1.119c1.56,0.41,3.991,1.841,6.396,4.246C76.458,52.744,77.12,55.916,76.771,56.328z M71.729,43.23   c-0.001,0-0.068,0.032-0.252,0.032l0,0c-0.787,0-2.109-0.536-3.646-1.553c0.547-1.199,0.929-2.493,1.227-3.83   C71.31,40.68,71.905,42.825,71.729,43.23z M59.925,31.537c0,0,0.068-0.032,0.251-0.032c1.223,0,3.72,1.271,6.345,3.687   c-0.277,1.681-0.609,3.243-1.142,4.616c-0.337-0.301-0.677-0.619-1.017-0.959C60.646,35.13,59.709,32.032,59.925,31.537z    M49.808,31.129c0.016-0.013,0.124-0.063,0.371-0.063c1.409,0,4.338,1.503,7.211,4.375c4.006,4.006,4.663,7.172,4.313,7.582   c-0.016,0.013-0.125,0.063-0.373,0.063c-1.408,0-4.338-1.503-7.21-4.375C50.28,34.874,49.413,31.575,49.808,31.129z M65.072,55.377   c-0.013,0.014-0.123,0.066-0.382,0.066c-1.402,0-4.307-1.486-7.146-4.326c-3.867-3.866-4.679-7.108-4.258-7.528   c0.013-0.014,0.122-0.067,0.381-0.067c1.402,0,4.307,1.486,7.146,4.326C64.681,51.715,65.492,54.957,65.072,55.377z"/><rect x="63.257" y="11.352" transform="matrix(0.7913 0.6114 -0.6114 0.7913 22.1014 -39.0529)" fill-rule="evenodd" clip-rule="evenodd" width="10.012" height="2.999"/><rect x="79.278" y="22.558" transform="matrix(-0.806 -0.5919 0.5919 -0.806 136.7581 92.9377)" fill-rule="evenodd" clip-rule="evenodd" width="8.662" height="3"/><rect x="83.361" y="10.814" transform="matrix(0.2727 0.9621 -0.9621 0.2727 76.4024 -70.5423)" fill-rule="evenodd" clip-rule="evenodd" width="3" height="8.902"/><rect x="64.003" y="16.74" transform="matrix(0.2659 0.964 -0.964 0.2659 67.9029 -48.0539)" fill-rule="evenodd" clip-rule="evenodd" width="3.001" height="7.634"/><rect x="70.603" y="26.806" transform="matrix(-0.0879 0.9961 -0.9961 -0.0879 109.804 -43.929)" fill-rule="evenodd" clip-rule="evenodd" width="8.821" height="3"/><rect x="75.355" y="4.464" transform="matrix(0.9985 0.054 -0.054 0.9985 0.6151 -4.14)" fill-rule="evenodd" clip-rule="evenodd" width="3" height="9.678"/><path fill-rule="evenodd" clip-rule="evenodd" d="M43.712,62.479c-5.497-5.496-10.25-11.906-12.289-17.167l-5.891,5.89   c1.351,4.619,5.912,11.281,12.044,17.414c4.646,4.646,9.587,8.412,13.914,10.602c2.003,1.016,3.582,1.529,4.801,1.736   c1.309-1.307,2.617-2.615,3.927-3.92c0.62-0.619,1.24-1.24,1.86-1.857c-1.139-0.363-2.366-0.871-3.686-1.539   C53.79,71.307,48.576,67.344,43.712,62.479z"/><path fill-rule="evenodd" clip-rule="evenodd" d="M23.186,53.547L11.198,65.533c-1.334,1.334-0.594,3.91-0.034,5.328   c0.874,2.209,2.39,4.465,4.271,6.355l13.68-13.678C26.389,59.982,24.341,56.533,23.186,53.547z"/><path fill-rule="evenodd" clip-rule="evenodd" d="M45.491,79.119c-4.366,4.355-8.731,8.711-13.092,13.07   c2.856,2.242,5.958,3.42,7.882,3.42c0,0,0,0,0,0c0.88,0,1.564-0.236,2.033-0.707c3.828-3.826,7.662-7.65,11.494-11.473   c-1.136-0.363-2.359-0.869-3.675-1.535C48.641,81.139,47.08,80.193,45.491,79.119z"/><path fill-rule="evenodd" clip-rule="evenodd" d="M35.455,70.736c-1.598-1.598-3.082-3.225-4.446-4.85L16.916,79.98   c-0.111,0.84,0.819,4.277,4.148,7.607c2.813,2.814,6.096,4.08,7.527,4.08c0.011,0.027,0.062-0.002,0.086-0.002   c4.774-4.775,9.555-9.543,14.336-14.313C40.487,75.443,37.926,73.209,35.455,70.736z"/></g></svg>
